# xmcd
#
# Track frame offsets:
#	150
#	14418
#	26666
#	37119
#	49905
#	59383
#	68028
#	86458
#	99066
#	108093
#	115791
#	128149
#	139855
#	145007
#	154380
#	174651
#	179371
#	188978
#	205585
#	212336
#	228643
#	241078
#	247500
#	264533
#	275371
#	285855
#	295349
#
# Disc length: 4069 seconds
#
# Revision: 1
# Processed by: cddbd v1.5.2PL0 Copyright (c) Steve Scherf et al.
# Submitted via: audiograbber 1.83.01
#
DISCID=760fe31b
DTITLE=Various Artist - Geh' aus, mein Herz - Deutsche Volkslieder II
DYEAR=2010
DGENRE=Volkslieder
TTITLE0=MAHLER (1860-1911) Angelika Kirchschlager, Helmut Deutsch - Bald gras i
TTITLE0=ch am Neckar
TTITLE1=BRAHMS (1833-1897) Christian Gerhaher, Gerold Huber - Vor dem Fenster
TTITLE2=SCHUBERT (1797-1828) Ruth Ziesak, Gerold Huber - In einem Bächlein hell
TTITLE2=e
TTITLE3=BRAHMS (1833-1897) Ruth Ziesak, Maximilian Schmitt, Gerold Huber - Fein
TTITLE3=sliebchen
TTITLE4=ZUCCALMAGLIO (1803-1869) Günther Groissböck, Gerold Huber - Kein schöne
TTITLE4=r Land
TTITLE5=BRAHMS (1833-1897)  Annette Dasch, Helmut Deutsch - Ich habe die Nacht 
TTITLE5=geträumet
TTITLE6=HUMPERDINCK (1854-1921) A. Dasch, A.Kirchschlager, H. D - Brüderchen, k
TTITLE6=omm tanz mit mir
TTITLE7=SILCHER (1789-1860) Michaela Kaune, Eric Schneider - Im schönsten Wiese
TTITLE7=ngrunde
TTITLE8=SILCHER (1789-1860)  Hanno Müller-Brachmann, Eric Schneider - Wenn alle
TTITLE8=Brünnlein fließen
TTITLE9=SILCHER (1789-1860) S. Rügamer, Franz Josef Selig, Helmut Deutsch - Woh
TTITLE9=in mit der Freud
TTITLE10=BÖHM (1844-1920) Christiane Oelze, Eric Schneider - Still wie die Nach
TTITLE10=t
TTITLE11=MENDELSSOHN (1809-1847) Windsbacher Knabenchor, K. F. Beringer - O Täl
TTITLE11=er weit, o Höhen
TTITLE12=BRAHMS (1833-1897) Christian Gerhaher, Gerold Huber - Die Schwälble
TTITLE13=BRAHMS (1833-1897) H.M.-Brachmann, Eric Schneider - Wach auf, meines H
TTITLE13=erzens schöne
TTITLE14=HARDER (1775-1813) Kaune, Kammerloher, Brachmann, Schneider - Geh' aus
TTITLE14=mein Herz
TTITLE15=VOLKSWEISE Kaune, Kammerloher, Brachmann - Es tönen die Lieder
TTITLE16=BRAHMS (1833-1897) Maximilian Schmitt, Gerold Huber - Es steht ein Lin
TTITLE16=d
TTITLE17=BRAHMS (1833-1897) Simon Pauly, Eric Schneider - Es war ein Marktgraf 
TTITLE17=überm Rhein
TTITLE18=MENDELSSOHN (1809-1847) Christiane Oelze, Eric Schneider - Gruß
TTITLE19=SCHUBERT (1797-1828) Maximilian Schmitt, Gerold Huber - Leise flehen m
TTITLE19=eine Lieder
TTITLE20=MOZART (1756-1791) Katharina Kammerloher, Eric Schneider - Das Veilche
TTITLE20=n
TTITLE21=BRAHMS (1833-1897) Daniel Johannsen, Gerold Huber - Die Sonne scheint 
TTITLE21=nicht mehr
TTITLE22=SCHUBERT (1797-1828) Stella Doufexis, Helmut Deutsch - Im Abendrot
TTITLE23=SILCHER (1789-1860) Stephan Rügamer, Helmut Deutsch - Gute Nacht
TTITLE24=SCHULZ (1747-1800) Angelika Kirchschlager, Helmut Deutsch - Der Mond i
TTITLE24=st aufgegangen
TTITLE25=BRAHMS (1833-1897) Christiane Karg, Eric Schneider - Guten Abend, gut'
TTITLE25=Nacht
TTITLE26=VOLKSWEISE Annette Dasch, Chor der Pfadfinderinnen - Wie schön blüht u
TTITLE26=ns der Maien
EXTD=
EXTT0=
EXTT1=
EXTT2=
EXTT3=
EXTT4=
EXTT5=
EXTT6=
EXTT7=
EXTT8=
EXTT9=
EXTT10=
EXTT11=
EXTT12=
EXTT13=
EXTT14=
EXTT15=
EXTT16=
EXTT17=
EXTT18=
EXTT19=
EXTT20=
EXTT21=
EXTT22=
EXTT23=
EXTT24=
EXTT25=
EXTT26=
PLAYORDER=
